<svg width="46" height="178" xmlns="http://www.w3.org/2000/svg" xmlns:xlink="http://www.w3.org/1999/xlink" overflow="hidden"><defs><clipPath id="clip0"><rect x="1585" y="661" width="46" height="178"/></clipPath></defs><g clip-path="url(#clip0)" transform="translate(-1585 -661)"><path d="M1587.5 684C1587.5 672.678 1596.68 663.5 1608 663.5 1619.32 663.5 1628.5 672.678 1628.5 684 1628.5 695.322 1619.32 704.5 1608 704.5 1596.68 704.5 1587.5 695.322 1587.5 684Z" stroke="#7F7F7F" stroke-width="4.58333" stroke-miterlimit="8" fill="#FFFFFF" fill-rule="evenodd"/><path d="M1587.5 816C1587.5 804.678 1596.68 795.5 1608 795.5 1619.32 795.5 1628.5 804.678 1628.5 816 1628.5 827.322 1619.32 836.5 1608 836.5 1596.68 836.5 1587.5 827.322 1587.5 816Z" stroke="#7F7F7F" stroke-width="4.58333" stroke-miterlimit="8" fill="#7F7F7F" fill-rule="evenodd"/><path d="M1608 704 1608 795.29" stroke="#7F7F7F" stroke-width="2.29167" stroke-miterlimit="8" stroke-dasharray="9.16667 6.875" fill="none" fill-rule="evenodd"/></g></svg>